<svg width="142" height="25" viewBox="0 0 142 25" fill="none" xmlns="http://www.w3.org/2000/svg">
    <path d="M13.056 19C12.88 18.424 12.68 17.832 12.456 17.224C12.248 16.616 12.04 16.008 11.832 15.4H5.352C5.144 16.008 4.928 16.616 4.704 17.224C4.496 17.832 4.304 18.424 4.128 19H0.24C0.864 17.208 1.456 15.552 2.016 14.032C2.576 12.512 3.12 11.08 3.648 9.736C4.192 8.392 4.72 7.12 5.232 5.92C5.76 4.704 6.304 3.52 6.864 2.368H10.44C10.984 3.52 11.52 4.704 12.048 5.92C12.576 7.12 13.104 8.392 13.632 9.736C14.176 11.08 14.728 12.512 15.288 14.032C15.848 15.552 16.44 17.208 17.064 19H13.056ZM8.568 6.136C8.488 6.376 8.368 6.704 8.208 7.12C8.048 7.536 7.864 8.016 7.656 8.56C7.448 9.104 7.216 9.704 6.96 10.36C6.72 11.016 6.472 11.704 6.216 12.424H10.944C10.688 11.704 10.44 11.016 10.2 10.36C9.96 9.704 9.728 9.104 9.504 8.56C9.296 8.016 9.112 7.536 8.952 7.12C8.792 6.704 8.664 6.376 8.568 6.136ZM16.9191 12.688C16.9191 11.776 17.0631 10.92 17.3511 10.12C17.6551 9.304 18.0871 8.6 18.6471 8.008C19.2071 7.4 19.8871 6.92 20.6871 6.568C21.4871 6.216 22.3991 6.04 23.4231 6.04C24.0951 6.04 24.7111 6.104 25.2711 6.232C25.8311 6.344 26.3751 6.512 26.9031 6.736L26.1591 9.592C25.8231 9.464 25.4551 9.352 25.0551 9.256C24.6551 9.16 24.2071 9.112 23.7111 9.112C22.6551 9.112 21.8631 9.44 21.3351 10.096C20.8231 10.752 20.5671 11.616 20.5671 12.688C20.5671 13.824 20.8071 14.704 21.2871 15.328C21.7831 15.952 22.6391 16.264 23.8551 16.264C24.2871 16.264 24.7511 16.224 25.2471 16.144C25.7431 16.064 26.1991 15.936 26.6151 15.76L27.1191 18.688C26.7031 18.864 26.1831 19.016 25.5591 19.144C24.9351 19.272 24.2471 19.336 23.4951 19.336C22.3431 19.336 21.3511 19.168 20.5191 18.832C19.6871 18.48 18.9991 18.008 18.4551 17.416C17.9271 16.824 17.5351 16.128 17.2791 15.328C17.0391 14.512 16.9191 13.632 16.9191 12.688ZM27.1097 12.688C27.1097 11.776 27.2537 10.92 27.5417 10.12C27.8457 9.304 28.2777 8.6 28.8377 8.008C29.3977 7.4 30.0777 6.92 30.8777 6.568C31.6777 6.216 32.5897 6.04 33.6137 6.04C34.2857 6.04 34.9017 6.104 35.4617 6.232C36.0217 6.344 36.5657 6.512 37.0937 6.736L36.3497 9.592C36.0137 9.464 35.6457 9.352 35.2457 9.256C34.8457 9.16 34.3977 9.112 33.9017 9.112C32.8457 9.112 32.0537 9.44 31.5257 10.096C31.0137 10.752 30.7577 11.616 30.7577 12.688C30.7577 13.824 30.9977 14.704 31.4777 15.328C31.9737 15.952 32.8297 16.264 34.0457 16.264C34.4777 16.264 34.9417 16.224 35.4377 16.144C35.9337 16.064 36.3897 15.936 36.8057 15.76L37.3097 18.688C36.8937 18.864 36.3737 19.016 35.7497 19.144C35.1257 19.272 34.4377 19.336 33.6857 19.336C32.5337 19.336 31.5417 19.168 30.7097 18.832C29.8777 18.48 29.1897 18.008 28.6457 17.416C28.1177 16.824 27.7257 16.128 27.4697 15.328C27.2297 14.512 27.1097 13.632 27.1097 12.688ZM37.3003 12.784C37.3003 11.664 37.4683 10.688 37.8043 9.856C38.1563 9.008 38.6123 8.304 39.1723 7.744C39.7323 7.184 40.3723 6.76 41.0923 6.472C41.8283 6.184 42.5803 6.04 43.3483 6.04C45.1403 6.04 46.5563 6.592 47.5963 7.696C48.6363 8.784 49.1563 10.392 49.1563 12.52C49.1563 12.728 49.1483 12.96 49.1323 13.216C49.1163 13.456 49.1003 13.672 49.0843 13.864H40.9723C41.0523 14.6 41.3963 15.184 42.0043 15.616C42.6123 16.048 43.4283 16.264 44.4523 16.264C45.1083 16.264 45.7483 16.208 46.3723 16.096C47.0123 15.968 47.5323 15.816 47.9323 15.64L48.4123 18.544C48.2203 18.64 47.9643 18.736 47.6443 18.832C47.3243 18.928 46.9643 19.008 46.5643 19.072C46.1803 19.152 45.7643 19.216 45.3163 19.264C44.8683 19.312 44.4203 19.336 43.9723 19.336C42.8363 19.336 41.8443 19.168 40.9963 18.832C40.1643 18.496 39.4683 18.04 38.9083 17.464C38.3643 16.872 37.9563 16.176 37.6843 15.376C37.4283 14.576 37.3003 13.712 37.3003 12.784ZM45.7003 11.416C45.6843 11.112 45.6283 10.816 45.5323 10.528C45.4523 10.24 45.3163 9.984 45.1243 9.76C44.9483 9.536 44.7163 9.352 44.4283 9.208C44.1563 9.064 43.8123 8.992 43.3963 8.992C42.9963 8.992 42.6523 9.064 42.3643 9.208C42.0763 9.336 41.8363 9.512 41.6443 9.736C41.4523 9.96 41.3003 10.224 41.1883 10.528C41.0923 10.816 41.0203 11.112 40.9723 11.416H45.7003ZM54.3399 16.432C54.9959 16.432 55.4599 16.368 55.7319 16.24C56.0039 16.112 56.1399 15.864 56.1399 15.496C56.1399 15.208 55.9639 14.96 55.6119 14.752C55.2599 14.528 54.7239 14.28 54.0039 14.008C53.4439 13.8 52.9319 13.584 52.4679 13.36C52.0199 13.136 51.6359 12.872 51.3159 12.568C50.9959 12.248 50.7479 11.872 50.5719 11.44C50.3959 11.008 50.3079 10.488 50.3079 9.88C50.3079 8.696 50.7479 7.76 51.6279 7.072C52.5079 6.384 53.7159 6.04 55.2519 6.04C56.0199 6.04 56.7559 6.112 57.4599 6.256C58.1639 6.384 58.7239 6.528 59.1399 6.688L58.5159 9.472C58.0999 9.328 57.6439 9.2 57.1479 9.088C56.6679 8.976 56.1239 8.92 55.5159 8.92C54.3959 8.92 53.8359 9.232 53.8359 9.856C53.8359 10 53.8599 10.128 53.9079 10.24C53.9559 10.352 54.0519 10.464 54.1959 10.576C54.3399 10.672 54.5319 10.784 54.7719 10.912C55.0279 11.024 55.3479 11.152 55.7319 11.296C56.5159 11.584 57.1639 11.872 57.6759 12.16C58.1879 12.432 58.5879 12.736 58.8759 13.072C59.1799 13.392 59.3879 13.752 59.4999 14.152C59.6279 14.552 59.6919 15.016 59.6919 15.544C59.6919 16.792 59.2199 17.736 58.2759 18.376C57.3479 19.016 56.0279 19.336 54.3159 19.336C53.1959 19.336 52.2599 19.24 51.5079 19.048C50.7719 18.856 50.2599 18.696 49.9719 18.568L50.5719 15.664C51.1799 15.904 51.8039 16.096 52.4439 16.24C53.0839 16.368 53.7159 16.432 54.3399 16.432ZM64.7884 16.432C65.4444 16.432 65.9084 16.368 66.1804 16.24C66.4524 16.112 66.5884 15.864 66.5884 15.496C66.5884 15.208 66.4124 14.96 66.0604 14.752C65.7084 14.528 65.1724 14.28 64.4524 14.008C63.8924 13.8 63.3804 13.584 62.9164 13.36C62.4684 13.136 62.0844 12.872 61.7644 12.568C61.4444 12.248 61.1964 11.872 61.0204 11.44C60.8444 11.008 60.7564 10.488 60.7564 9.88C60.7564 8.696 61.1964 7.76 62.0764 7.072C62.9564 6.384 64.1644 6.04 65.7004 6.04C66.4684 6.04 67.2044 6.112 67.9084 6.256C68.6124 6.384 69.1724 6.528 69.5884 6.688L68.9644 9.472C68.5484 9.328 68.0924 9.2 67.5964 9.088C67.1164 8.976 66.5724 8.92 65.9644 8.92C64.8444 8.92 64.2844 9.232 64.2844 9.856C64.2844 10 64.3084 10.128 64.3564 10.24C64.4044 10.352 64.5004 10.464 64.6444 10.576C64.7884 10.672 64.9804 10.784 65.2204 10.912C65.4764 11.024 65.7964 11.152 66.1804 11.296C66.9644 11.584 67.6124 11.872 68.1244 12.16C68.6364 12.432 69.0364 12.736 69.3244 13.072C69.6284 13.392 69.8364 13.752 69.9484 14.152C70.0764 14.552 70.1404 15.016 70.1404 15.544C70.1404 16.792 69.6684 17.736 68.7244 18.376C67.7964 19.016 66.4764 19.336 64.7644 19.336C63.6444 19.336 62.7084 19.24 61.9564 19.048C61.2204 18.856 60.7084 18.696 60.4204 18.568L61.0204 15.664C61.6284 15.904 62.2524 16.096 62.8924 16.24C63.5324 16.368 64.1644 16.432 64.7884 16.432ZM75.1888 19H71.6128V6.376H75.1888V19ZM75.5248 2.728C75.5248 3.384 75.3088 3.904 74.8768 4.288C74.4608 4.656 73.9648 4.84 73.3888 4.84C72.8128 4.84 72.3088 4.656 71.8768 4.288C71.4608 3.904 71.2528 3.384 71.2528 2.728C71.2528 2.072 71.4608 1.56 71.8768 1.192C72.3088 0.807999 72.8128 0.615999 73.3888 0.615999C73.9648 0.615999 74.4608 0.807999 74.8768 1.192C75.3088 1.56 75.5248 2.072 75.5248 2.728ZM85.4383 12.784C85.4383 11.68 85.1903 10.8 84.6943 10.144C84.1983 9.472 83.4623 9.136 82.4863 9.136C82.1663 9.136 81.8703 9.152 81.5983 9.184C81.3263 9.2 81.1023 9.224 80.9263 9.256V15.712C81.1503 15.856 81.4383 15.976 81.7903 16.072C82.1583 16.168 82.5263 16.216 82.8943 16.216C84.5903 16.216 85.4383 15.072 85.4383 12.784ZM89.0863 12.688C89.0863 13.664 88.9663 14.552 88.7263 15.352C88.4863 16.152 88.1343 16.84 87.6703 17.416C87.2063 17.992 86.6303 18.44 85.9423 18.76C85.2543 19.08 84.4623 19.24 83.5663 19.24C83.0703 19.24 82.6063 19.192 82.1743 19.096C81.7423 19 81.3263 18.864 80.9263 18.688V23.44H77.3503V6.808C77.6703 6.712 78.0383 6.624 78.4543 6.544C78.8703 6.448 79.3023 6.368 79.7503 6.304C80.2143 6.24 80.6783 6.192 81.1423 6.16C81.6223 6.112 82.0783 6.088 82.5103 6.088C83.5503 6.088 84.4783 6.248 85.2943 6.568C86.1103 6.872 86.7983 7.312 87.3583 7.888C87.9183 8.448 88.3423 9.136 88.6303 9.952C88.9343 10.768 89.0863 11.68 89.0863 12.688ZM95.4587 16.504C95.8107 16.504 96.1467 16.496 96.4667 16.48C96.7867 16.464 97.0427 16.44 97.2347 16.408V13.696C97.0907 13.664 96.8747 13.632 96.5867 13.6C96.2987 13.568 96.0347 13.552 95.7947 13.552C95.4587 13.552 95.1387 13.576 94.8347 13.624C94.5467 13.656 94.2907 13.728 94.0667 13.84C93.8427 13.952 93.6667 14.104 93.5387 14.296C93.4107 14.488 93.3467 14.728 93.3467 15.016C93.3467 15.576 93.5307 15.968 93.8987 16.192C94.2827 16.4 94.8027 16.504 95.4587 16.504ZM95.1707 6.04C96.2267 6.04 97.1067 6.16 97.8107 6.4C98.5147 6.64 99.0747 6.984 99.4907 7.432C99.9227 7.88 100.227 8.424 100.403 9.064C100.579 9.704 100.667 10.416 100.667 11.2V18.64C100.155 18.752 99.4427 18.88 98.5307 19.024C97.6187 19.184 96.5147 19.264 95.2187 19.264C94.4027 19.264 93.6587 19.192 92.9867 19.048C92.3307 18.904 91.7627 18.672 91.2827 18.352C90.8027 18.016 90.4347 17.584 90.1787 17.056C89.9227 16.528 89.7947 15.88 89.7947 15.112C89.7947 14.376 89.9387 13.752 90.2267 13.24C90.5307 12.728 90.9307 12.32 91.4267 12.016C91.9227 11.712 92.4907 11.496 93.1307 11.368C93.7707 11.224 94.4347 11.152 95.1227 11.152C95.5867 11.152 95.9947 11.176 96.3467 11.224C96.7147 11.256 97.0107 11.304 97.2347 11.368V11.032C97.2347 10.424 97.0507 9.936 96.6827 9.568C96.3147 9.2 95.6747 9.016 94.7627 9.016C94.1547 9.016 93.5547 9.064 92.9627 9.16C92.3707 9.24 91.8587 9.36 91.4267 9.52L90.9707 6.64C91.1787 6.576 91.4347 6.512 91.7387 6.448C92.0587 6.368 92.4027 6.304 92.7707 6.256C93.1387 6.192 93.5227 6.144 93.9227 6.112C94.3387 6.064 94.7547 6.04 95.1707 6.04ZM107.74 19.24C106.7 19.224 105.852 19.112 105.196 18.904C104.556 18.696 104.044 18.408 103.66 18.04C103.292 17.656 103.036 17.2 102.892 16.672C102.764 16.128 102.7 15.52 102.7 14.848V0.951999L106.276 0.375999V14.128C106.276 14.448 106.3 14.736 106.348 14.992C106.396 15.248 106.484 15.464 106.612 15.64C106.756 15.816 106.956 15.96 107.212 16.072C107.468 16.184 107.812 16.256 108.244 16.288L107.74 19.24Z" fill="#fff"/>
    <path d="M130.75 1.125C129.848 1.125 128.935 1.07974 128.035 1.13194C127.59 1.15772 127.177 1.29148 126.774 1.47569C126.269 1.70683 125.74 1.88623 125.24 2.125C124.446 2.50391 123.724 3.02706 122.91 3.36806C122.014 3.74319 121.139 4.06679 120.344 4.65972C119.462 5.31785 118.771 6.09721 118.188 7.02778C117.56 8.02965 116.929 8.96534 116.215 9.90972C115.877 10.3572 115.595 10.8405 115.264 11.2917C115.11 11.501 115 11.5759 115 11.8333C115 12.5165 115.034 13.1899 115.125 13.8681C115.212 14.5195 115.263 15.2727 115.507 15.8889C115.882 16.8366 116.663 17.6549 117.278 18.4514C117.903 19.2605 118.466 20.1049 119.174 20.8472C119.925 21.635 121.251 21.9623 122.26 22.2465C122.981 22.4496 123.7 22.7405 124.427 22.9062C125.365 23.1202 126.359 23.1673 127.312 23.2847C128.134 23.3859 129.028 23.3573 129.84 23.2153C130.638 23.0758 131.406 22.77 132.215 22.6528C133.2 22.5102 134.178 22.3018 135.125 21.9861C136.731 21.4508 137.86 19.7663 138.806 18.4618C139.685 17.2485 140.438 16.0107 140.562 14.4861C140.603 13.9888 140.679 13.4923 140.688 12.9931C140.69 12.8508 140.743 12.5581 140.66 12.4236C140.294 11.8338 140.044 11.2467 139.785 10.6042C139.588 10.1165 139.259 9.70504 139.111 9.1875C139.017 8.85894 138.8 8.57227 138.625 8.28472C138.339 7.8141 138.14 7.29752 137.861 6.82639C137.755 6.6467 137.582 6.49858 137.462 6.32639C137.234 5.99944 137.059 5.6355 136.816 5.31944C136.498 4.90618 136.265 4.43242 135.948 4.02083C135.534 3.48261 135.164 2.91357 134.684 2.43403C134.419 2.16917 134.097 1.92615 133.778 1.72917C133.491 1.5518 133.03 1.52164 132.701 1.40278C132.406 1.29603 131.994 1.21978 131.688 1.1875C131.444 1.1619 131.254 1.0625 131 1.0625" stroke="#fff" stroke-width="2" stroke-linecap="round"/>
    <path d="M119.688 12.5625C120.058 13.2116 120.591 13.7957 121.215 14.1875C121.577 14.4142 121.896 14.6875 122.271 14.8889C122.734 15.1377 123.19 15.4017 123.674 15.6111C123.925 15.72 124.193 15.8007 124.424 15.9514C124.948 16.2931 125.565 16.5587 126.163 16.7465C126.834 16.9571 127.47 17.125 128.174 17.125C128.817 17.125 129.482 17.0786 130.118 16.9861C130.709 16.9001 131.348 16.6875 131.941 16.6875C132.637 16.6875 133.303 16.375 134 16.375" stroke="#fff" stroke-width="2" stroke-linecap="round"/>
    <path d="M122.5 8.25C123.24 7.65789 124.556 6.94365 125.559 7.19444C125.67 7.22209 125.748 7.42715 125.812 7.51389C126.009 7.77709 126.104 8.04019 126.125 8.36111C126.147 8.68453 126.142 8.96829 126.125 9.30555C126.115 9.49879 126 9.62036 126 9.8125" stroke="#fff" stroke-width="2" stroke-linecap="round"/>
    <path d="M130 10.4375C130.131 10.3779 130.437 10.0837 130.497 9.94444C130.549 9.8226 130.73 9.74366 130.826 9.65972C131.078 9.44068 131.319 9.2265 131.59 9.03125C132.006 8.73176 132.405 8.30111 132.951 8.3125C133.533 8.32462 134.37 8.59956 134.622 9.1875C134.781 9.56013 134.629 10.0471 134.625 10.4375C134.623 10.6874 134.625 10.9375 134.625 11.1875" stroke="#fff" stroke-width="2" stroke-linecap="round"/>
</svg>