<svg width="28" height="24" viewBox="0 0 28 24" fill="none" xmlns="http://www.w3.org/2000/svg">
    <path d="M16.9299 1.06171C16.0172 1.06171 15.0945 1.01702 14.1836 1.06856C13.7339 1.09401 13.3159 1.22608 12.9088 1.40796C12.3979 1.63616 11.8622 1.81329 11.3565 2.04904C10.5541 2.42315 9.82395 2.93967 9.00005 3.27634C8.09366 3.64672 7.20863 3.96622 6.40477 4.55164C5.51254 5.20142 4.81381 5.9709 4.2239 6.88968C3.58879 7.87886 2.95054 8.80269 2.22916 9.7351C1.88731 10.177 1.60154 10.6541 1.2669 11.0995C1.11165 11.3062 1 11.3801 1 11.6343C1 12.3089 1.03461 12.9737 1.12643 13.6433C1.21463 14.2865 1.26588 15.0301 1.51273 15.6385C1.89242 16.5742 2.68172 17.3821 3.30379 18.1685C3.93567 18.9674 4.50537 19.8011 5.22127 20.534C5.98098 21.3118 7.32284 21.635 8.34333 21.9156C9.07245 22.1161 9.79962 22.4033 10.5347 22.5669C11.4835 22.7782 12.4883 22.8247 13.4531 22.9406C14.2845 23.0405 15.188 23.0122 16.0098 22.872C16.8169 22.7343 17.5935 22.4324 18.4119 22.3167C19.4075 22.1759 20.397 21.9701 21.3548 21.6585C22.9791 21.1299 24.1213 19.4668 25.0774 18.1788C25.9667 16.9809 26.7285 15.7588 26.8544 14.2535C26.8955 13.7625 26.9726 13.2723 26.9808 12.7794C26.9832 12.6389 27.0372 12.3499 26.9527 12.2171C26.5825 11.6348 26.3305 11.0552 26.0678 10.4207C25.8683 9.93922 25.536 9.53302 25.3865 9.02204C25.2915 8.69763 25.0713 8.4146 24.8948 8.1307C24.6059 7.66604 24.4046 7.15601 24.1222 6.69085C24.0145 6.51344 23.8399 6.36719 23.7183 6.19718C23.4875 5.87438 23.311 5.51505 23.0651 5.203C22.7436 4.79497 22.5074 4.32721 22.1871 3.92084C21.7684 3.38944 21.3938 2.82761 20.9088 2.35415C20.6409 2.09265 20.3148 1.8527 19.9922 1.65822C19.7018 1.4831 19.2359 1.45332 18.9035 1.33597C18.605 1.23057 18.1882 1.15528 17.8781 1.12342C17.6321 1.09814 17.4397 1 17.1827 1" stroke="#fff" stroke-width="2" stroke-linecap="round"/>
    <path d="M5.83429 12.5C6.2052 13.1491 6.73757 13.7332 7.36207 14.125C7.72342 14.3517 8.04232 14.625 8.41762 14.8264C8.88126 15.0752 9.33693 15.3392 9.8204 15.5486C10.0717 15.6575 10.3393 15.7382 10.5704 15.8889C11.0944 16.2306 11.7114 16.4962 12.31 16.684C12.981 16.8946 13.6172 17.0625 14.3204 17.0625C14.9639 17.0625 15.6287 17.0161 16.2648 16.9236C16.8561 16.8376 17.4945 16.625 18.0878 16.625C18.7833 16.625 19.45 16.3125 20.1468 16.3125" stroke="#fff" stroke-width="2" stroke-linecap="round"/>
    <path d="M8.64679 8.1875C9.38692 7.59539 10.7027 6.88115 11.7058 7.13194C11.8164 7.15959 11.8947 7.36465 11.9593 7.45139C12.1553 7.71459 12.2504 7.97769 12.2718 8.29861C12.2934 8.62203 12.2889 8.90579 12.2718 9.24305C12.262 9.43629 12.1468 9.55786 12.1468 9.75" stroke="#fff" stroke-width="2" stroke-linecap="round"/>
    <path d="M16.1468 10.375C16.2778 10.3154 16.5836 10.0212 16.6433 9.88194C16.6955 9.7601 16.8769 9.68116 16.9732 9.59722C17.2244 9.37818 17.4662 9.164 17.7371 8.96875C18.1525 8.66926 18.5516 8.23861 19.0982 8.25C19.68 8.26212 20.5163 8.53706 20.7683 9.125C20.928 9.49763 20.7756 9.98456 20.7718 10.375C20.7694 10.6249 20.7718 10.875 20.7718 11.125" stroke="#fff" stroke-width="2" stroke-linecap="round"/>
</svg>
