<svg width="146" height="25" viewBox="0 0 146 25" fill="none" xmlns="http://www.w3.org/2000/svg">
    <path d="M3.96307 19H0.588068L6.73295 1.54545H10.6364L16.7898 19H13.4148L8.75284 5.125H8.61648L3.96307 19ZM4.07386 12.1562H13.2784V14.696H4.07386V12.1562ZM23.0642 19.2557C21.7574 19.2557 20.6352 18.9688 19.6977 18.3949C18.7659 17.821 18.0472 17.0284 17.5415 16.017C17.0415 15 16.7915 13.8295 16.7915 12.5057C16.7915 11.1761 17.0472 10.0028 17.5585 8.9858C18.0699 7.96307 18.7915 7.16761 19.7233 6.59943C20.6608 6.02557 21.7688 5.73864 23.0472 5.73864C24.1097 5.73864 25.05 5.93466 25.8682 6.3267C26.692 6.71307 27.3483 7.26136 27.8369 7.97159C28.3256 8.67614 28.604 9.5 28.6722 10.4432H25.7233C25.604 9.8125 25.3199 9.28693 24.871 8.86648C24.4278 8.44034 23.8341 8.22727 23.0898 8.22727C22.4591 8.22727 21.9051 8.39773 21.4278 8.73864C20.9506 9.07386 20.5784 9.55682 20.3114 10.1875C20.05 10.8182 19.9193 11.5739 19.9193 12.4545C19.9193 13.3466 20.05 14.1136 20.3114 14.7557C20.5727 15.392 20.9392 15.8835 21.4108 16.2301C21.8881 16.571 22.4477 16.7415 23.0898 16.7415C23.5443 16.7415 23.9506 16.6562 24.3085 16.4858C24.6722 16.3097 24.9761 16.0568 25.2205 15.7273C25.4648 15.3977 25.6324 14.9972 25.7233 14.5256H28.6722C28.5983 15.4517 28.3256 16.2727 27.854 16.9886C27.3824 17.6989 26.7403 18.2557 25.9278 18.6591C25.1153 19.0568 24.1608 19.2557 23.0642 19.2557ZM35.7158 19.2557C34.4089 19.2557 33.2868 18.9688 32.3493 18.3949C31.4175 17.821 30.6987 17.0284 30.193 16.017C29.693 15 29.443 13.8295 29.443 12.5057C29.443 11.1761 29.6987 10.0028 30.2101 8.9858C30.7214 7.96307 31.443 7.16761 32.3749 6.59943C33.3124 6.02557 34.4203 5.73864 35.6987 5.73864C36.7612 5.73864 37.7016 5.93466 38.5197 6.3267C39.3436 6.71307 39.9999 7.26136 40.4885 7.97159C40.9771 8.67614 41.2555 9.5 41.3237 10.4432H38.3749C38.2555 9.8125 37.9714 9.28693 37.5226 8.86648C37.0794 8.44034 36.4857 8.22727 35.7413 8.22727C35.1107 8.22727 34.5567 8.39773 34.0794 8.73864C33.6021 9.07386 33.23 9.55682 32.9629 10.1875C32.7016 10.8182 32.5709 11.5739 32.5709 12.4545C32.5709 13.3466 32.7016 14.1136 32.9629 14.7557C33.2243 15.392 33.5908 15.8835 34.0624 16.2301C34.5396 16.571 35.0993 16.7415 35.7413 16.7415C36.1959 16.7415 36.6021 16.6562 36.9601 16.4858C37.3237 16.3097 37.6277 16.0568 37.872 15.7273C38.1163 15.3977 38.2839 14.9972 38.3749 14.5256H41.3237C41.2499 15.4517 40.9771 16.2727 40.5055 16.9886C40.0339 17.6989 39.3919 18.2557 38.5794 18.6591C37.7669 19.0568 36.8124 19.2557 35.7158 19.2557ZM48.4526 19.2557C47.1401 19.2557 46.0065 18.983 45.052 18.4375C44.1031 17.8864 43.373 17.108 42.8616 16.1023C42.3503 15.0909 42.0946 13.9006 42.0946 12.5312C42.0946 11.1847 42.3503 10.0028 42.8616 8.9858C43.3787 7.96307 44.1003 7.16761 45.0264 6.59943C45.9526 6.02557 47.0406 5.73864 48.2906 5.73864C49.0974 5.73864 49.8588 5.86932 50.5747 6.13068C51.2963 6.38636 51.9327 6.78409 52.4838 7.32386C53.0406 7.86364 53.4781 8.55114 53.7963 9.38636C54.1145 10.2159 54.2736 11.2045 54.2736 12.3523V13.2983H43.5435V11.2188H51.3162C51.3105 10.6278 51.1827 10.1023 50.9327 9.64205C50.6827 9.17614 50.3332 8.80966 49.8844 8.54261C49.4412 8.27557 48.9241 8.14205 48.3332 8.14205C47.7026 8.14205 47.1486 8.29545 46.6713 8.60227C46.194 8.90341 45.8219 9.30114 45.5548 9.79545C45.2935 10.2841 45.1599 10.821 45.1543 11.4062V13.2216C45.1543 13.983 45.2935 14.6364 45.5719 15.1818C45.8503 15.7216 46.2395 16.1364 46.7395 16.4261C47.2395 16.7102 47.8247 16.8523 48.4952 16.8523C48.944 16.8523 49.3503 16.7898 49.7139 16.6648C50.0776 16.5341 50.3929 16.3438 50.6599 16.0938C50.927 15.8438 51.1287 15.5341 51.2651 15.1648L54.1457 15.4886C53.9639 16.25 53.6173 16.9148 53.106 17.483C52.6003 18.0455 51.9526 18.483 51.1628 18.7955C50.373 19.1023 49.4696 19.2557 48.4526 19.2557ZM66.0303 9.36932L63.2178 9.67614C63.1382 9.39205 62.999 9.125 62.8001 8.875C62.607 8.625 62.3456 8.4233 62.0161 8.26989C61.6865 8.11648 61.2831 8.03977 60.8058 8.03977C60.1638 8.03977 59.624 8.17898 59.1865 8.45739C58.7547 8.7358 58.5416 9.09659 58.5473 9.53977C58.5416 9.92045 58.6808 10.2301 58.9649 10.4688C59.2547 10.7074 59.732 10.9034 60.3967 11.0568L62.6297 11.5341C63.8683 11.8011 64.7888 12.2244 65.3911 12.804C65.999 13.3835 66.3058 14.142 66.3115 15.0795C66.3058 15.9034 66.0643 16.6307 65.5871 17.2614C65.1155 17.8864 64.4592 18.375 63.6183 18.7273C62.7774 19.0795 61.8115 19.2557 60.7206 19.2557C59.1183 19.2557 57.8286 18.9205 56.8513 18.25C55.874 17.5739 55.2916 16.6335 55.1041 15.429L58.1126 15.1392C58.249 15.7301 58.5388 16.1761 58.982 16.4773C59.4251 16.7784 60.0018 16.929 60.7121 16.929C61.445 16.929 62.0331 16.7784 62.4763 16.4773C62.9251 16.1761 63.1496 15.804 63.1496 15.3608C63.1496 14.9858 63.0047 14.6761 62.7149 14.4318C62.4308 14.1875 61.9876 14 61.3854 13.8693L59.1524 13.4006C57.8967 13.1392 56.9678 12.6989 56.3655 12.0795C55.7632 11.4545 55.4649 10.6648 55.4706 9.71023C55.4649 8.90341 55.6837 8.20455 56.1268 7.61364C56.5757 7.01705 57.1979 6.55682 57.9933 6.23295C58.7945 5.90341 59.7178 5.73864 60.7632 5.73864C62.2973 5.73864 63.5047 6.06534 64.3854 6.71875C65.2717 7.37216 65.82 8.25568 66.0303 9.36932ZM78.0021 9.36932L75.1896 9.67614C75.1101 9.39205 74.9709 9.125 74.772 8.875C74.5788 8.625 74.3175 8.4233 73.9879 8.26989C73.6584 8.11648 73.255 8.03977 72.7777 8.03977C72.1357 8.03977 71.5959 8.17898 71.1584 8.45739C70.7266 8.7358 70.5135 9.09659 70.5192 9.53977C70.5135 9.92045 70.6527 10.2301 70.9368 10.4688C71.2266 10.7074 71.7038 10.9034 72.3686 11.0568L74.6016 11.5341C75.8402 11.8011 76.7607 12.2244 77.3629 12.804C77.9709 13.3835 78.2777 14.142 78.2834 15.0795C78.2777 15.9034 78.0362 16.6307 77.5589 17.2614C77.0874 17.8864 76.4311 18.375 75.5902 18.7273C74.7493 19.0795 73.7834 19.2557 72.6925 19.2557C71.0902 19.2557 69.8004 18.9205 68.8232 18.25C67.8459 17.5739 67.2635 16.6335 67.076 15.429L70.0845 15.1392C70.2209 15.7301 70.5107 16.1761 70.9538 16.4773C71.397 16.7784 71.9737 16.929 72.6839 16.929C73.4169 16.929 74.005 16.7784 74.4482 16.4773C74.897 16.1761 75.1214 15.804 75.1214 15.3608C75.1214 14.9858 74.9766 14.6761 74.6868 14.4318C74.4027 14.1875 73.9595 14 73.3572 13.8693L71.1243 13.4006C69.8686 13.1392 68.9396 12.6989 68.3374 12.0795C67.7351 11.4545 67.4368 10.6648 67.4425 9.71023C67.4368 8.90341 67.6555 8.20455 68.0987 7.61364C68.5476 7.01705 69.1697 6.55682 69.9652 6.23295C70.7663 5.90341 71.6896 5.73864 72.7351 5.73864C74.2692 5.73864 75.4766 6.06534 76.3572 6.71875C77.2436 7.37216 77.7919 8.25568 78.0021 9.36932ZM79.6274 19V5.90909H82.7126V19H79.6274ZM81.1786 4.05114C80.6899 4.05114 80.2695 3.8892 79.9172 3.56534C79.5649 3.23579 79.3888 2.84091 79.3888 2.38068C79.3888 1.91477 79.5649 1.51989 79.9172 1.19602C80.2695 0.866477 80.6899 0.701704 81.1786 0.701704C81.6729 0.701704 82.0933 0.866477 82.4399 1.19602C82.7922 1.51989 82.9683 1.91477 82.9683 2.38068C82.9683 2.84091 82.7922 3.23579 82.4399 3.56534C82.0933 3.8892 81.6729 4.05114 81.1786 4.05114ZM84.6852 23.9091V5.90909H87.7193V8.07386H87.8983C88.0574 7.75568 88.2818 7.41761 88.5716 7.05966C88.8614 6.69602 89.2534 6.38636 89.7477 6.13068C90.242 5.86932 90.8727 5.73864 91.6398 5.73864C92.6511 5.73864 93.5631 5.99716 94.3756 6.5142C95.1937 7.02557 95.8415 7.78409 96.3187 8.78977C96.8017 9.78977 97.0432 11.017 97.0432 12.4716C97.0432 13.9091 96.8074 15.1307 96.3358 16.1364C95.8642 17.142 95.2222 17.9091 94.4097 18.4375C93.5972 18.9659 92.6767 19.2301 91.6483 19.2301C90.8983 19.2301 90.2761 19.1051 89.7818 18.8551C89.2875 18.6051 88.8898 18.304 88.5886 17.9517C88.2932 17.5937 88.0631 17.2557 87.8983 16.9375H87.7705V23.9091H84.6852ZM87.7108 12.4545C87.7108 13.3011 87.8301 14.0426 88.0687 14.679C88.3131 15.3153 88.6625 15.8125 89.117 16.1705C89.5773 16.5227 90.1341 16.6989 90.7875 16.6989C91.4693 16.6989 92.0403 16.517 92.5006 16.1534C92.9608 15.7841 93.3074 15.2812 93.5403 14.6449C93.779 14.0028 93.8983 13.2727 93.8983 12.4545C93.8983 11.642 93.7818 10.9205 93.5489 10.2898C93.3159 9.65909 92.9693 9.16477 92.5091 8.80682C92.0489 8.44886 91.475 8.26989 90.7875 8.26989C90.1284 8.26989 89.5687 8.44318 89.1085 8.78977C88.6483 9.13636 88.2989 9.62216 88.0602 10.2472C87.8273 10.8722 87.7108 11.608 87.7108 12.4545ZM102.252 19.2642C101.423 19.2642 100.676 19.1165 100.011 18.821C99.3517 18.5199 98.829 18.0767 98.4426 17.4915C98.0619 16.9062 97.8716 16.1847 97.8716 15.3267C97.8716 14.5881 98.008 13.9773 98.2807 13.4943C98.5534 13.0114 98.9256 12.625 99.3972 12.3352C99.8688 12.0455 100.4 11.8267 100.991 11.679C101.588 11.5256 102.204 11.4148 102.84 11.3466C103.607 11.267 104.23 11.196 104.707 11.1335C105.184 11.0653 105.531 10.9631 105.747 10.8267C105.968 10.6847 106.079 10.4659 106.079 10.1705V10.1193C106.079 9.47727 105.889 8.98011 105.508 8.62784C105.127 8.27557 104.579 8.09943 103.863 8.09943C103.107 8.09943 102.508 8.2642 102.065 8.59375C101.627 8.9233 101.332 9.3125 101.178 9.76136L98.2977 9.35227C98.525 8.55682 98.9 7.89205 99.4227 7.35795C99.9455 6.81818 100.585 6.41477 101.34 6.14773C102.096 5.875 102.931 5.73864 103.846 5.73864C104.477 5.73864 105.105 5.8125 105.73 5.96023C106.355 6.10795 106.926 6.35227 107.443 6.69318C107.96 7.02841 108.374 7.4858 108.687 8.06534C109.005 8.64489 109.164 9.36932 109.164 10.2386V19H106.198V17.2017H106.096C105.909 17.5653 105.644 17.9062 105.303 18.2244C104.968 18.5369 104.545 18.7898 104.034 18.983C103.528 19.1705 102.934 19.2642 102.252 19.2642ZM103.053 16.9972C103.673 16.9972 104.21 16.875 104.664 16.6307C105.119 16.3807 105.468 16.0511 105.713 15.642C105.963 15.233 106.088 14.7869 106.088 14.304V12.7614C105.991 12.8409 105.826 12.9148 105.593 12.983C105.366 13.0511 105.11 13.1108 104.826 13.1619C104.542 13.2131 104.261 13.2585 103.982 13.2983C103.704 13.3381 103.463 13.3722 103.258 13.4006C102.798 13.4631 102.386 13.5653 102.022 13.7074C101.659 13.8494 101.372 14.0483 101.161 14.304C100.951 14.554 100.846 14.8778 100.846 15.2756C100.846 15.8438 101.053 16.2727 101.468 16.5625C101.883 16.8523 102.411 16.9972 103.053 16.9972ZM114.152 1.54545V19H111.066V1.54545H114.152Z" fill="#fff"/>
    <path d="M134.875 1.125C133.973 1.125 133.06 1.07974 132.16 1.13194C131.715 1.15772 131.302 1.29148 130.899 1.47569C130.394 1.70683 129.865 1.88623 129.365 2.125C128.571 2.50391 127.849 3.02706 127.035 3.36806C126.139 3.74319 125.264 4.06679 124.469 4.65972C123.587 5.31785 122.896 6.09721 122.312 7.02778C121.685 8.02965 121.054 8.96534 120.34 9.90972C120.002 10.3572 119.72 10.8405 119.389 11.2917C119.235 11.501 119.125 11.5759 119.125 11.8333C119.125 12.5165 119.159 13.1899 119.25 13.8681C119.337 14.5195 119.388 15.2727 119.632 15.8889C120.007 16.8366 120.788 17.6549 121.403 18.4514C122.028 19.2605 122.591 20.1049 123.299 20.8472C124.05 21.635 125.376 21.9623 126.385 22.2465C127.106 22.4496 127.825 22.7405 128.552 22.9062C129.49 23.1202 130.484 23.1673 131.438 23.2847C132.259 23.3859 133.153 23.3573 133.965 23.2153C134.763 23.0758 135.531 22.77 136.34 22.6528C137.325 22.5102 138.303 22.3018 139.25 21.9861C140.856 21.4508 141.985 19.7663 142.931 18.4618C143.81 17.2485 144.563 16.0107 144.688 14.4861C144.728 13.9888 144.804 13.4923 144.812 12.9931C144.815 12.8508 144.868 12.5581 144.785 12.4236C144.419 11.8338 144.169 11.2467 143.91 10.6042C143.713 10.1165 143.384 9.70504 143.236 9.1875C143.142 8.85894 142.925 8.57227 142.75 8.28472C142.464 7.8141 142.265 7.29752 141.986 6.82639C141.88 6.6467 141.707 6.49858 141.587 6.32639C141.359 5.99944 141.184 5.6355 140.941 5.31944C140.623 4.90618 140.39 4.43242 140.073 4.02083C139.659 3.48261 139.289 2.91357 138.809 2.43403C138.544 2.16917 138.222 1.92615 137.903 1.72917C137.616 1.5518 137.155 1.52164 136.826 1.40278C136.531 1.29603 136.119 1.21978 135.812 1.1875C135.569 1.1619 135.379 1.0625 135.125 1.0625" stroke="#fff" stroke-width="2" stroke-linecap="round"/>
    <path d="M123.812 12.5625C124.183 13.2116 124.716 13.7957 125.34 14.1875C125.702 14.4142 126.021 14.6875 126.396 14.8889C126.859 15.1377 127.315 15.4017 127.799 15.6111C128.05 15.72 128.318 15.8007 128.549 15.9514C129.073 16.2931 129.69 16.5587 130.288 16.7465C130.959 16.9571 131.595 17.125 132.299 17.125C132.942 17.125 133.607 17.0786 134.243 16.9861C134.834 16.9001 135.473 16.6875 136.066 16.6875C136.762 16.6875 137.428 16.375 138.125 16.375" stroke="#fff" stroke-width="2" stroke-linecap="round"/>
    <path d="M126.625 8.25C127.365 7.65789 128.681 6.94365 129.684 7.19444C129.795 7.22209 129.873 7.42715 129.938 7.51389C130.134 7.77709 130.229 8.04019 130.25 8.36111C130.272 8.68453 130.267 8.96829 130.25 9.30555C130.24 9.49879 130.125 9.62036 130.125 9.8125" stroke="#fff" stroke-width="2" stroke-linecap="round"/>
    <path d="M134.125 10.4375C134.256 10.3779 134.562 10.0837 134.622 9.94444C134.674 9.8226 134.855 9.74366 134.951 9.65972C135.203 9.44068 135.444 9.2265 135.715 9.03125C136.131 8.73176 136.53 8.30111 137.076 8.3125C137.658 8.32462 138.495 8.59956 138.747 9.1875C138.906 9.56013 138.754 10.0471 138.75 10.4375C138.748 10.6874 138.75 10.9375 138.75 11.1875" stroke="#fff" stroke-width="2" stroke-linecap="round"/>
</svg>